<?xml version="1.0" encoding="iso-8859-1"?>
<!-- Generator: Adobe Illustrator 19.0.0, SVG Export Plug-In . SVG Version: 6.00 Build 0)  -->
<svg version="1.1" id="Capa_1" xmlns="http://www.w3.org/2000/svg" xmlns:xlink="http://www.w3.org/1999/xlink" x="0px" y="0px"
	 viewBox="0 0 512 512" style="enable-background:new 0 0 512 512;" xml:space="preserve">
<path style="fill:#5B5D6E;" d="M16.695,398.5c-5.345,0-9.695-4.35-9.695-9.695v-25.609c0-5.346,4.35-9.695,9.695-9.695H61v45
	L16.695,398.5L16.695,398.5z"/>
<path style="fill:#FF507D;" d="M492.619,316.5h-58.794l-27.736-62.631c-1.981-4.477-6.426-7.369-11.321-7.369H296.5v152h54.965
	h88.07h53.084c6.827,0,12.381-5.554,12.381-12.381v-57.238C505,322.055,499.446,316.5,492.619,316.5z"/>
<path style="fill:#C7CFE2;" d="M304.719,155.001H179.191h-87.45h-31.96c-10.08,0-18.281,8.201-18.281,18.281V398.5h62.965h88.07H323
	V173.282C323,163.202,314.799,155.001,304.719,155.001z"/>
<path style="fill:#AAB5CC;" d="M192.535,374.185h-88.07H90.384c-5.321,0-9.634-4.313-9.634-9.634v-191.27
	c0-10.08,8.201-18.281,18.281-18.281h-7.29h-31.96c-10.096,0-18.281,8.185-18.281,18.281v200.904V398.5h39.25h23.715h88.07H323
	v-24.315H192.535z"/>
<path style="fill:#FF507D;" d="M113.641,173.928C93.807,165.23,81,145.652,81,124.001c0-30.052,24.448-54.5,54.5-54.5
	s54.5,24.448,54.5,54.5c0,22.558-14.158,43.025-35.248,50.994l-19.229,37.048L113.641,173.928z"/>
<path style="fill:#EF1846;" d="M161.317,143.303c10.242-12.347,10.159-30.559-0.183-42.822c-6.899-8.18-16.708-12.147-26.436-11.912
	c-3.009,0.072-5.127-2.936-4.089-5.761l4.891-13.307c-30.052,0-54.5,24.448-54.5,54.5c0,21.652,12.807,41.23,32.641,49.928
	l21.882,38.114l-11.17-52.054c-0.641-2.989,1.961-5.67,4.966-5.11C140.776,157.016,153.141,153.158,161.317,143.303z"/>
<path style="fill:#FFFFFF;" d="M135.5,138.501c-9.098,0-16.5-7.402-16.5-16.5s7.402-16.5,16.5-16.5s16.5,7.402,16.5,16.5
	S144.598,138.501,135.5,138.501z"/>
<path style="fill:#5B5D6E;" d="M148.5,442.5c-24.537,0-44.5-19.963-44.5-44.5s19.963-44.5,44.5-44.5S193,373.464,193,398
	S173.037,442.5,148.5,442.5z"/>
<path style="fill:#FFFFFF;" d="M148.5,411.5c-7.444,0-13.5-6.056-13.5-13.5c0-7.444,6.056-13.5,13.5-13.5S162,390.557,162,398
	C162,405.445,155.944,411.5,148.5,411.5z"/>
<g>
	<path style="fill:#FFDC64;" d="M42,354.5v-45h26.675c4.591,0,8.325,3.734,8.325,8.325v28.35c0,4.591-3.734,8.325-8.325,8.325
		L42,354.5L42,354.5z"/>
	<rect x="42" y="235.501" style="fill:#FFDC64;" width="281" height="50"/>
	<path style="fill:#FFDC64;" d="M476.5,398.5v-29.517c0-2.2,1.783-3.983,3.983-3.983H505v21.119c0,6.838-5.543,12.381-12.381,12.381
		H476.5z"/>
</g>
<path style="fill:#5B5D6E;" d="M395.5,442.5c-24.537,0-44.5-19.963-44.5-44.5s19.963-44.5,44.5-44.5S440,373.464,440,398
	S420.037,442.5,395.5,442.5z"/>
<path style="fill:#FFFFFF;" d="M395.5,411.5c-7.444,0-13.5-6.056-13.5-13.5c0-7.444,6.056-13.5,13.5-13.5S409,390.557,409,398
	C409,405.445,402.944,411.5,395.5,411.5z"/>
<polygon style="fill:#00C3FF;" points="348,323.5 348,268.5 383.819,268.5 409.282,323.5 "/>
<path d="M148.5,377.5c-11.304,0-20.5,9.196-20.5,20.5c0,11.304,9.196,20.5,20.5,20.5S169,409.305,169,398
	C169,386.697,159.804,377.5,148.5,377.5z M148.5,403.5c-3.033,0-5.5-2.467-5.5-5.5c0-3.033,2.467-5.5,5.5-5.5s5.5,2.467,5.5,5.5
	C154,401.034,151.533,403.5,148.5,403.5z"/>
<path d="M395.5,377.5c-11.304,0-20.5,9.196-20.5,20.5c0,11.304,9.196,20.5,20.5,20.5S416,409.305,416,398
	C416,386.697,406.804,377.5,395.5,377.5z M395.5,403.5c-3.033,0-5.5-2.467-5.5-5.5c0-3.033,2.467-5.5,5.5-5.5s5.5,2.467,5.5,5.5
	C401,401.034,398.533,403.5,395.5,403.5z"/>
<path d="M390.306,265.849c-1.228-2.651-3.884-4.349-6.806-4.349h-35c-4.143,0-7.5,3.357-7.5,7.5v54c0,4.143,3.357,7.5,7.5,7.5h60
	c2.56,0,4.941-1.305,6.32-3.462c1.378-2.156,1.561-4.866,0.485-7.189L390.306,265.849z M356,315.5v-39h22.707l18.056,39H356z"/>
<path d="M135.5,145.501c12.958,0,23.5-10.542,23.5-23.5s-10.542-23.5-23.5-23.5s-23.5,10.542-23.5,23.5
	S122.542,145.501,135.5,145.501z M135.5,113.501c4.687,0,8.5,3.813,8.5,8.5s-3.813,8.5-8.5,8.5s-8.5-3.813-8.5-8.5
	S130.813,113.501,135.5,113.501z"/>
<path d="M492.619,405.5c10.687,0,19.381-8.694,19.381-19.381v-57.238c0-10.687-8.694-19.381-19.381-19.381h-54.238l-25.893-58.466
	c-3.102-7.007-10.058-11.534-17.721-11.534H330v-66.219c0-13.94-11.341-25.281-25.281-25.281H192.075
	c3.184-7.462,4.925-15.602,4.925-24c0-33.911-27.589-61.5-61.5-61.5S74,90.09,74,124.001c0,8.414,1.722,16.547,4.882,24H59.781
	c-13.94,0-25.281,11.341-25.281,25.281V346.5H16.695C7.489,346.5,0,353.99,0,363.195v25.609C0,398.01,7.489,405.5,16.695,405.5H41.5
	c0.084,0,0.166-0.01,0.25-0.013c0.084,0.003,0.166,0.013,0.25,0.013h55.552c1.65,11.257,6.962,21.334,14.673,29H81.667H47.5h-40
	c-4.143,0-7.5,3.357-7.5,7.5s3.357,7.5,7.5,7.5h40h35.167h345H459h45c4.143,0,7.5-3.357,7.5-7.5s-3.357-7.5-7.5-7.5h-45h-27.225
	c7.711-7.666,13.023-17.743,14.673-29L492.619,405.5L492.619,405.5z M34,390.5H16.695c-0.935,0-1.695-0.761-1.695-1.695v-25.609
	c0-0.935,0.761-1.695,1.695-1.695H34V390.5z M497,386.12c0,2.416-1.965,4.381-4.381,4.381H484.5V373H497V386.12z M135.5,77.501
	c25.641,0,46.5,20.859,46.5,46.5c0,19.303-12.148,36.812-30.229,43.568c-1.74,0.649-3.177,1.922-4.031,3.57l-12.571,24.22
	l-14.673-25.558c-0.803-1.398-2.034-2.501-3.514-3.144C99.983,159.268,89,142.523,89,124.001C89,98.36,109.859,77.501,135.5,77.501z
	 M49.5,173.282c0-5.678,4.603-10.281,10.281-10.281h28.175c5.551,6.768,12.568,12.393,20.725,16.347l19.505,33.976
	c1.334,2.324,3.47,4.098,6.018,4.928c0.8,0.26,1.107,0.254,1.455,0.248c2.742-0.058,5.234-1.608,6.497-4.043l17.617-33.941
	c9.168-3.946,17.068-10.026,23.205-17.514h121.741c5.678,0,10.281,4.603,10.281,10.281v55.218h-79.874c-4.142,0-7.5,3.358-7.5,7.5
	s3.358,7.5,7.5,7.5H315v34H50v-34h141.466c4.142,0,7.5-3.358,7.5-7.5s-3.358-7.5-7.5-7.5H49.5V173.282z M97.552,390.5H49.5v-29
	h19.175c8.45,0,15.325-6.875,15.325-15.325v-28.35c0-8.45-6.875-15.325-15.325-15.325H49.5v-10H315v98H199.448
	c-3.643-24.854-25.098-44-50.948-44S101.195,365.646,97.552,390.5z M50,346.5v-29h18.675c0.18,0,0.325,0.146,0.325,0.325v28.35
	c0,0.18-0.146,0.325-0.325,0.325L50,346.5L50,346.5z M148.5,434.5c-20.126,0-36.5-16.374-36.5-36.5c0-20.126,16.374-36.5,36.5-36.5
	S185,377.875,185,398C185,418.127,168.626,434.5,148.5,434.5z M184.775,434.5c7.711-7.666,13.023-17.743,14.673-29H322.5
	c0.084,0,0.166-0.01,0.25-0.013c0.084,0.003,0.166,0.013,0.25,0.013h21.552c1.65,11.257,6.962,21.334,14.673,29H184.775z
	 M395.5,434.5c-20.126,0-36.5-16.374-36.5-36.5c0-20.126,16.374-36.5,36.5-36.5S432,377.875,432,398
	C432,418.127,415.626,434.5,395.5,434.5z M395.5,346.5c-25.85,0-47.305,19.146-50.948,44H330.5v-136h64.268
	c1.732,0,3.305,1.023,4.006,2.607l27.869,62.93c1.201,2.713,3.89,4.463,6.857,4.463h59.119c2.416,0,4.381,1.965,4.381,4.381V358h-20
	c-3.987,0-7.238,3.112-7.477,7.039H457.5c-4.143,0-7.5,3.357-7.5,7.5s3.357,7.5,7.5,7.5h12V390.5h-23.052
	C442.805,365.646,421.35,346.5,395.5,346.5z"/>
<g>
</g>
<g>
</g>
<g>
</g>
<g>
</g>
<g>
</g>
<g>
</g>
<g>
</g>
<g>
</g>
<g>
</g>
<g>
</g>
<g>
</g>
<g>
</g>
<g>
</g>
<g>
</g>
<g>
</g>
</svg>
